<?xml version="1.0" encoding="UTF-8"?>
<svg id="Capa_1" xmlns="http://www.w3.org/2000/svg" viewBox="0 0 115.18 111.7">
  <defs>
    <style>
      .cls-1 {
        fill: #1d1d1b;
      }
    </style>
  </defs>
  <path class="cls-1" d="M93.29,25.94h-11.4l-3.52-10.84c-6.54-20.13-35.01-20.13-41.55,0l-3.52,10.84h-11.4c-21.16,0-29.96,27.08-12.84,39.52l9.22,6.7-3.52,10.84c-6.54,20.13,16.5,36.86,33.62,24.42l9.22-6.7,9.22,6.7c17.12,12.44,40.16-4.3,33.62-24.42l-3.52-10.84,9.22-6.7c17.12-12.44,8.32-39.52-12.84-39.52ZM82.13,65.8c-.26,0-.53,0-.74-.05h-.11l-1.64-.47-19.36-5.17c-.11.48-.37.9-.74,1.22l14.77,14.77.58.63c.16.26.32.47.47.74,1.79,3.06.74,6.96-2.32,8.7s-6.96.74-8.76-2.32c-.16-.26-.26-.53-.37-.79l-.42-1.58-5.17-19.41c-.26.06-.47.11-.74.11s-.47-.05-.74-.11l-5.12,18.94-.05.1v.16l-.47,1.74v.05c-.1.26-.22.53-.37.79-1.74,3.06-5.65,4.06-8.7,2.32-3.06-1.74-4.11-5.64-2.37-8.7.15-.26.31-.47.47-.74l15.41-15.4c-.37-.31-.64-.79-.74-1.27l-18.94,5.01-.1.05-.1.06-.11.05-1.95.53h-.05c-1.32.11-2.59-.16-3.8-.84-3.06-1.74-4.11-5.64-2.32-8.7,1.32-2.32,3.85-3.48,6.32-3.17l1.59.42,19.47,5.17c.1-.47.37-.9.74-1.22l-15.46-15.45c-.79-1.06-1.27-2.37-1.27-3.8,0-3.53,2.84-6.38,6.38-6.38,2.64,0,4.91,1.58,5.91,3.9l.37,1.32v.21l5.27,19.46c.27-.05.47-.11.74-.11s.47.06.74.11l5.17-19.36.42-1.58v-.06c.53-1.26,1.48-2.32,2.74-3.06,3.06-1.79,6.96-.74,8.7,2.32,1.37,2.37,1.06,5.27-.63,7.28l-.79.79-14.4,14.4c.37.32.63.74.74,1.22l19.36-5.12.32-.1,1.11-.31.11-.06h.11c.26-.05.53-.05.84-.05,3.54,0,6.38,2.9,6.38,6.38s-2.85,6.43-6.38,6.43Z"/>
</svg>