<?xml version="1.0" encoding="UTF-8"?>
<svg id="Capa_1" xmlns="http://www.w3.org/2000/svg" viewBox="0 0 412.63 332.4">
  <path d="M411.02,164.31c-3.5-8.27-10.91-16.93-15.58-22.18-11.94-13.37-43.49-24.47-46.12,3.27-2.75,28.75,4.64,60.85-15.04,85.29-13.32,16.58-38.33,14.32-45.84-4.05-3.9-9.55-1.75-18.55,3.01-27.14,7.32-13.31,15.28-22.34,26.89-32.13,2.86-2.41,5.77-5.06,7.02-8.58,1.86-5.16-.53-11.3-4.94-14.53-4.41-3.23-10.4-3.74-15.62-2.19-13.82,4.13-22.55,21.33-29.51,32.89-13.98,23.17-22.82,45.72-43.3,63.52-31.08,27.01-66.25,39.73-107.48,31.36-20.24-4.1-36.37-13.82-47.18-28.05-3.08-4.1-4.95-9-5.39-14.13-.44-5.13.57-10.28,2.9-14.85,11.6-22.56,34.73-2.64,49.9,5.4,1.16.62,2.47.89,3.77.8,1.31-.1,2.56-.56,3.62-1.33,1.06-.78,1.88-1.84,2.38-3.06s.64-2.56.41-3.87l-6.11-35.91c-.19-1.13-.11-2.29.24-3.38.35-1.09.96-2.08,1.77-2.88l25.85-25.4c.94-.92,1.6-2.09,1.91-3.37.31-1.28.27-2.63-.14-3.89-.41-1.26-1.15-2.37-2.15-3.23s-2.22-1.4-3.51-1.59l-35.74-5.24c-11.03-1.64-16.38-25.55-15.78-34.52,1.11-16.67,14.33-30.35,26.31-40.46C172.95,12.43,238.17-5.86,289.86,31.94c4.5,3.29,9.24,8.43,7.46,13.74-1.2,3.56-4.86,5.5-7.74,7.89-10.03,8.33-10.36,25.84-.7,34.57,9.65,8.73,26.87,6.46,33.98-4.48,8.46-13.04,1.72-30.8-8.02-42.85-14.43-17.77-34.94-29.98-56.9-35.95-26.07-7.08-54.14-6.07-80.12.85C106.54,24.62,55.02,69.59,20.33,134.53,2.82,167.36-4.07,202.44,2.38,239.62c6.09,35.11,22.41,63.81,55.59,78.38,54.03,23.71,105.5,18.75,152.22-19.46,21.15-17.3,36.32-39.45,53.42-60.63,2.42-3.23,5.08-6.27,7.94-9.1,9.16-8.44,13.16,8.94,15.38,14.65,8.75,22.51,20.2,47.02,40.31,61.37,28.66,20.46,47.85-3.27,46.27-32.66-1.46-27.22-5.39-55.71-9.81-82.61-1.87-11.42-2.51-23.05-3.27-34.62-.36-5.45,4.59-2.81,6.79-.67,3.9,3.8,1.8,10,2.67,14.73,4.45,24.23,52.01,21.02,41.15-4.69Z"/>
</svg>